<?xml version="1.0" standalone="no"?>
<!DOCTYPE svg PUBLIC "-//W3C//DTD SVG 20010904//EN"
 "http://www.w3.org/TR/2001/REC-SVG-20010904/DTD/svg10.dtd">
<svg version="1.0" xmlns="http://www.w3.org/2000/svg"
 width="200.000000pt" height="200.000000pt" viewBox="0 0 200.000000 200.000000"
 preserveAspectRatio="xMidYMid meet">
<metadata>
Created by potrace 1.14, written by Peter Selinger 2001-2017
</metadata>
<g transform="translate(0.000000,200.000000) scale(0.100000,-0.100000)"
fill="#000000" stroke="none">
<path d="M0 1151 l0 -849 88 -65 c145 -108 291 -199 308 -193 8 3 13 2 10 -3
-3 -5 5 -16 19 -25 22 -14 104 -16 800 -16 l775 0 0 1000 0 1000 -1000 0
-1000 0 0 -849z m1008 476 c-2 -8 -14 -11 -33 -7 l-30 5 24 24 c21 21 25 22
33 7 5 -9 8 -22 6 -29z m-133 -7 c3 -5 1 -10 -4 -10 -6 0 -11 5 -11 10 0 6 2
10 4 10 3 0 8 -4 11 -10z m531 -48 c-8 -8 -50 27 -52 44 -2 12 6 8 27 -12 16
-15 27 -29 25 -32z m-811 -34 c-31 -37 -60 -60 -95 -77 l-25 -12 25 18 c49 36
90 75 85 83 -3 5 1 11 7 13 7 3 0 6 -17 7 l-30 2 30 13 c44 20 55 -5 20 -47z
m414 -15 c-1 -17 -3 -21 -6 -10 -2 9 -9 17 -14 17 -5 0 -9 5 -9 10 0 6 7 10
15 10 10 0 15 -9 14 -27z m34 -19 c3 -3 2 -17 -3 -30 -6 -16 -6 -24 1 -24 6 0
7 -6 2 -12 -13 -22 -14 -56 -2 -64 7 -4 9 -3 6 3 -5 8 18 11 67 11 77 1 106
-13 90 -40 -5 -9 -2 -8 10 2 16 12 19 12 28 -4 8 -13 13 -15 24 -5 19 15 18
21 -6 47 -24 26 -15 30 12 5 10 -9 18 -23 18 -32 0 -13 2 -13 9 -2 6 10 10 10
16 1 4 -6 -2 -21 -14 -34 -19 -20 -19 -23 -4 -38 15 -15 14 -16 -13 -13 -16 2
-56 7 -89 11 -32 4 -65 12 -72 20 -7 7 -38 16 -68 19 -53 7 -85 24 -85 47 0 5
6 8 13 5 10 -3 47 28 47 41 0 3 -26 2 -57 -1 -44 -5 -52 -4 -33 4 18 7 21 12
11 18 -10 6 -9 10 4 15 9 3 26 6 38 6 16 0 18 3 9 12 -9 9 -7 14 6 24 19 15
26 17 35 8z m299 -99 c6 -11 -8 -2 -31 20 -22 21 -41 43 -41 49 0 13 59 -43
72 -69z m-144 27 c6 -9 12 -21 12 -26 0 -6 -5 -4 -10 4 -6 10 -10 11 -10 3 0
-8 -14 -13 -35 -13 -19 0 -35 5 -35 10 0 6 7 10 15 10 8 0 15 5 15 10 0 16
-70 12 -76 -5 -4 -8 -10 -15 -15 -15 -5 0 -2 11 7 25 15 23 21 25 68 19 28 -3
57 -13 64 -22z m37 -1 c3 -5 2 -12 -3 -15 -5 -3 -9 1 -9 9 0 17 3 19 12 6z
m-175 -166 c5 -3 20 -8 32 -10 13 -3 37 -7 53 -10 23 -5 26 -4 15 4 -9 7 -10
11 -3 11 6 0 15 -5 19 -11 4 -8 9 -7 15 2 8 12 11 11 19 -1 5 -8 10 -10 10 -4
0 8 17 8 58 2 58 -9 112 -28 112 -39 0 -10 -158 0 -207 13 -23 5 -46 7 -51 4
-6 -3 -12 -3 -15 1 -2 5 -2 1 0 -7 3 -8 6 -28 8 -45 1 -16 1 -22 -2 -13 -5 19
-33 45 -33 31 0 -5 6 -15 13 -23 10 -12 9 -12 -5 -2 -13 10 -17 10 -22 0 -3
-7 -4 -3 -2 9 2 12 1 21 -3 20 -3 -1 -19 11 -35 26 -16 15 -36 27 -45 28 -9 1
-5 5 9 9 17 5 19 8 8 9 -10 1 -18 5 -18 10 0 9 48 0 70 -14z m-40 -109 c0 -29
-22 -49 -44 -40 -31 12 -15 64 20 64 19 0 24 -5 24 -24z m157 2 c-3 -8 -6 -5
-6 6 -1 11 2 17 5 13 3 -3 4 -12 1 -19z m64 -8 c5 0 9 -9 9 -20 0 -11 6 -20
14 -20 9 0 13 8 10 23 -2 12 -2 16 2 10 3 -8 26 -13 57 -13 48 0 54 -3 75 -33
12 -18 22 -36 22 -39 0 -3 -17 -2 -37 2 -21 5 -62 11 -91 13 -35 4 -58 11 -66
23 -8 10 -20 15 -29 11 -20 -7 -30 3 -17 19 6 6 20 9 32 6 14 -3 19 -1 14 6
-4 7 -16 12 -26 12 -13 0 -17 5 -14 15 5 13 8 13 21 0 8 -8 19 -15 24 -15z
m79 10 c0 -5 8 -6 19 -3 10 3 22 0 25 -6 5 -7 -5 -11 -27 -11 -26 0 -36 5 -40
19 -3 14 -1 18 9 14 8 -3 14 -9 14 -13z m-423 -85 c0 -8 -4 -12 -9 -9 -5 3 -6
10 -3 15 9 13 12 11 12 -6z m73 -31 c0 -2 -13 2 -30 11 -16 9 -30 18 -30 21 0
2 14 -2 30 -11 17 -9 30 -18 30 -21z m-37 -12 c-1 -5 7 -8 17 -5 14 4 20 0 20
-11 0 -19 -5 -20 -29 -6 -22 11 -38 44 -19 37 7 -2 12 -9 11 -15z m515 -11 c2
-7 15 -24 28 -38 43 -47 38 -48 -91 -11 -38 11 -79 26 -91 33 -11 7 -31 15
-45 18 -13 2 -3 5 24 6 26 0 47 5 47 9 0 13 123 -3 128 -17z m51 -135 c-6 -6
-108 29 -118 40 -3 4 6 5 21 2 15 -3 32 -2 39 3 12 7 68 -36 58 -45z m-135
-16 c17 -6 26 -6 26 0 0 6 5 10 11 10 5 0 7 -4 4 -10 -3 -5 0 -8 7 -5 7 3 37
-3 66 -14 32 -12 52 -15 52 -8 0 6 11 0 25 -13 19 -18 25 -34 25 -65 0 -40 -2
-42 -29 -43 -16 0 -35 6 -42 14 -6 8 -8 14 -3 14 5 0 -16 15 -47 33 -31 18
-62 37 -70 43 -8 7 -30 15 -49 19 -19 4 -42 12 -50 17 -11 6 -7 7 13 3 19 -4
26 -2 22 5 -8 13 6 13 39 0z m106 -290 c0 -5 -4 -10 -10 -10 -5 0 -10 5 -10
10 0 6 5 10 10 10 6 0 10 -4 10 -10z m-339 -71 c11 -5 17 -15 13 -21 -4 -5 -1
-13 5 -17 15 -9 3 -41 -15 -41 -7 0 -17 -8 -23 -17 -7 -14 -12 -15 -23 -5 -8
6 -17 9 -20 6 -4 -3 -9 9 -13 26 -5 21 -2 39 9 55 18 27 36 31 67 14z m329
-19 c0 -5 -2 -10 -4 -10 -3 0 -8 5 -11 10 -3 6 -1 10 4 10 6 0 11 -4 11 -10z
m-572 -45 c-7 -8 -38 23 -38 38 0 6 10 2 22 -10 12 -13 19 -25 16 -28z m-383
25 c-3 -5 -12 -10 -18 -10 -7 0 -6 4 3 10 19 12 23 12 15 0z m33 -45 c3 -16 1
-18 -9 -8 -9 9 -16 10 -26 1 -19 -15 -29 -2 -13 17 17 21 44 15 48 -10z m-97
-78 c-11 -11 -41 2 -41 18 0 10 5 11 24 2 14 -7 21 -16 17 -20z m85 -10 c1
-17 -1 -26 -3 -19 -4 10 -9 8 -20 -5 -13 -16 -13 -16 -3 5 6 13 9 30 6 38 -3
8 0 14 7 14 7 0 12 -14 13 -33z m69 13 c-3 -5 -12 -10 -18 -10 -7 0 -6 4 3 10
19 12 23 12 15 0z m-57 -80 c13 0 20 -4 17 -10 -12 -19 -50 -9 -69 17 l-20 27
24 -17 c14 -9 35 -17 48 -17z m-200 -50 c-7 -10 -14 -18 -15 -16 -6 6 9 36 18
36 5 0 4 -9 -3 -20z m28 -26 c-4 -9 -9 -15 -11 -12 -3 3 -3 13 1 22 4 9 9 15
11 12 3 -3 3 -13 -1 -22z m201 -17 c-2 -6 -10 -12 -18 -15 -11 -3 -11 -1 1 8
12 10 11 11 -7 7 -13 -3 -23 -1 -23 4 0 5 5 9 11 9 5 0 7 5 3 11 -4 7 1 7 15
-1 12 -6 21 -16 18 -23z m223 -152 c-7 -8 -18 -15 -24 -15 -6 0 -2 7 8 15 25
19 32 19 16 0z"/>
<path d="M1114 1369 c-4 -8 1 -9 16 -4 15 5 20 3 16 -3 -3 -6 -1 -14 5 -18 8
-4 9 -3 5 4 -4 7 -2 12 3 12 6 0 11 -5 11 -12 0 -6 3 -8 7 -4 9 9 -24 36 -43
36 -7 0 -16 -5 -20 -11z"/>
<path d="M1110 1336 c0 -2 7 -7 16 -10 8 -3 12 -2 9 4 -6 10 -25 14 -25 6z"/>
<path d="M1190 1310 l-25 -8 28 -1 c15 -1 27 4 27 9 0 6 -1 10 -2 9 -2 -1 -14
-5 -28 -9z"/>
<path d="M0 140 l0 -140 206 0 c134 0 203 3 199 10 -3 6 -11 10 -16 10 -6 0
-25 11 -43 25 -18 14 -36 25 -39 25 -3 0 -33 19 -67 43 -34 23 -75 51 -91 62
-17 11 -54 39 -84 63 -29 23 -56 42 -59 42 -3 0 -6 -63 -6 -140z m188 -98 c36
-22 36 -22 7 -17 -116 24 -122 26 -144 72 -11 24 -21 46 -21 49 0 3 27 -14 60
-38 33 -24 77 -53 98 -66z"/>
<path d="M60 116 c0 -21 23 -45 52 -55 31 -11 32 -11 12 6 -52 47 -64 56 -64
49z"/>
</g>
</svg>
